<svg viewBox="0 0 1000 249" fill="none" xmlns="http://www.w3.org/2000/svg">
  <path fill-rule="evenodd" clip-rule="evenodd"
    d="M0 248.327V.324h1000V249L0 248.327Zm343.825-105.584 56.001-82.929h36.733v130.181h-33.478l-.229-19.593h-38.576c-12.088 12.222-29.514 19.593-46.939 19.593-36.033 0-65.546-29.254-65.546-64.989 0-35.948 32.995-65.674 69.017-65.674 19.296 0 38.587 8.548 51.598 21.904l-16.726 25.348c-8.368-8.533-20.685-13.604-32.773-13.604-1.627 0-3.959.243-5.697.466-17.537 0-31.952 14.283-31.952 31.803 0 17.267 14.415 31.576 31.83 31.576 10.695 0 20.912-5.305 26.737-14.082Zm59.027-26.471-18.347 25.555h18.576l-.229-25.555Zm64.382 73.722h33.467V90.211h26.016V59.812l-85.51.218v30.182h26.027v99.782ZM638.28 59.814h.001l-.001-.002v.002Zm0 0-33.466.009-.233 48.603h-39.515l-.25-48.614h-33.441v130.181h33.69v-51.391h39.747v51.391h33.468V59.814Zm268.189 60.581V59.814H939.952l-.042 130.182h-30.436l-45.762-63.353v63.352h-33.711l-.229-47.252c-8.13 27.659-33.934 47.252-63.215 47.252-16.731 0-33.462-6.916-45.779-18.215v18.215h-77.963V59.815h34.103v98.61h33.155c-5.57-10.154-9.052-21.877-9.052-33.419 0-35.948 29.519-65.192 65.536-65.192 29.281 0 55.546 20.038 63.214 47.692l.229-47.48 30.457-.212 46.012 60.581Zm-173.374 4.61c0 18.449 15.104 33.192 33.463 33.192 18.601.001 33.705-14.743 33.705-33.191 0-18.194-15.104-33.166-33.706-33.166-18.358 0-33.462 14.972-33.462 33.165Zm-521.778 15.202v18.22l.002.001h39.519l.068 31.564h-76.294v-44.464c-7.902 24.198-30.685 42.169-56.473 44.464H60.033V59.816l57.867.212c26.027 2.306 48.81 20.288 56.712 44.708V60.028l76.225-.212.068 32.026h-39.588v16.583h35.852l.064 31.782h-35.916Zm-93.179 19.826c9.063-.233 17.436-6.439 19.519-15.204 2.099-6.222 3.259-13.122 3.259-19.821 0-6.439-1.16-13.35-3.259-19.344-2.083-8.972-10.456-15.454-19.519-15.454H96.76v69.823h21.378Z"
    fill="currentColor" />
</svg>
